<?xml version="1.0"?>
<svg xmlns="http://www.w3.org/2000/svg" xmlns:xlink="http://www.w3.org/1999/xlink" xmlns:svgjs="http://svgjs.com/svgjs" version="1.1" width="512" height="512" x="0" y="0" viewBox="0 0 438.536 438.536" style="enable-background:new 0 0 512 512" xml:space="preserve" class=""><g>
<g xmlns="http://www.w3.org/2000/svg">
	<path d="M414.41,24.123C398.333,8.042,378.963,0,356.315,0H82.228C59.58,0,40.21,8.042,24.126,24.123   C8.045,40.207,0.003,59.576,0.003,82.225v274.084c0,22.647,8.042,42.018,24.123,58.102c16.084,16.084,35.454,24.126,58.102,24.126   h274.084c22.648,0,42.018-8.042,58.095-24.126c16.084-16.084,24.126-35.454,24.126-58.102V82.225   C438.532,59.576,430.49,40.204,414.41,24.123z M335.471,168.735c0.191,1.713,0.288,4.278,0.288,7.71   c0,15.989-2.334,32.025-6.995,48.104c-4.661,16.087-11.8,31.504-21.416,46.254c-9.606,14.749-21.074,27.791-34.396,39.115   c-13.325,11.32-29.311,20.365-47.968,27.117c-18.648,6.762-38.637,10.143-59.953,10.143c-33.116,0-63.76-8.952-91.931-26.836   c4.568,0.568,9.329,0.855,14.275,0.855c27.6,0,52.439-8.565,74.519-25.7c-12.941-0.185-24.506-4.179-34.688-11.991   c-10.185-7.803-17.273-17.699-21.271-29.691c4.947,0.76,8.658,1.137,11.132,1.137c4.187,0,9.042-0.76,14.56-2.279   c-13.894-2.669-25.598-9.562-35.115-20.697c-9.519-11.136-14.277-23.84-14.277-38.114v-0.571   c10.085,4.755,19.602,7.229,28.549,7.422c-17.321-11.613-25.981-28.265-25.981-49.963c0-10.66,2.758-20.747,8.278-30.264   c15.035,18.464,33.311,33.213,54.816,44.252c21.507,11.038,44.54,17.227,69.092,18.558c-0.95-3.616-1.427-8.186-1.427-13.704   c0-16.562,5.853-30.692,17.56-42.399c11.703-11.706,25.837-17.561,42.394-17.561c17.515,0,32.079,6.283,43.688,18.846   c13.134-2.474,25.892-7.33,38.26-14.56c-4.757,14.652-13.613,25.788-26.55,33.402c12.368-1.716,23.88-4.95,34.537-9.708   C357.458,149.793,347.462,160.166,335.471,168.735z" fill="#ffffff" data-original="#000000" style="" class=""/>
</g>
<g xmlns="http://www.w3.org/2000/svg">
</g>
<g xmlns="http://www.w3.org/2000/svg">
</g>
<g xmlns="http://www.w3.org/2000/svg">
</g>
<g xmlns="http://www.w3.org/2000/svg">
</g>
<g xmlns="http://www.w3.org/2000/svg">
</g>
<g xmlns="http://www.w3.org/2000/svg">
</g>
<g xmlns="http://www.w3.org/2000/svg">
</g>
<g xmlns="http://www.w3.org/2000/svg">
</g>
<g xmlns="http://www.w3.org/2000/svg">
</g>
<g xmlns="http://www.w3.org/2000/svg">
</g>
<g xmlns="http://www.w3.org/2000/svg">
</g>
<g xmlns="http://www.w3.org/2000/svg">
</g>
<g xmlns="http://www.w3.org/2000/svg">
</g>
<g xmlns="http://www.w3.org/2000/svg">
</g>
<g xmlns="http://www.w3.org/2000/svg">
</g>
<script>(function(){class RuffleMimeType{constructor(a,b,c){this.type=a,this.description=b,this.suffixes=c}}class RuffleMimeTypeArray{constructor(a){this.__mimetypes=[],this.__named_mimetypes={};for(let b of a)this.install(b)}install(a){let b=this.__mimetypes.length;this.__mimetypes.push(a),this.__named_mimetypes[a.type]=a,this[a.type]=a,this[b]=a}item(a){return this.__mimetypes[a]}namedItem(a){return this.__named_mimetypes[a]}get length(){return this.__mimetypes.length}}class RufflePlugin extends RuffleMimeTypeArray{constructor(a,b,c,d){super(d),this.name=a,this.description=b,this.filename=c}install(a){a.enabledPlugin||(a.enabledPlugin=this),super.install(a)}}class RufflePluginArray{constructor(a){this.__plugins=[],this.__named_plugins={};for(let b of a)this.install(b)}install(a){let b=this.__plugins.length;this.__plugins.push(a),this.__named_plugins[a.name]=a,this[a.name]=a,this[b]=a}item(a){return this.__plugins[a]}namedItem(a){return this.__named_plugins[a]}get length(){return this.__plugins.length}}const FLASH_PLUGIN=new RufflePlugin("Shockwave Flash","Shockwave Flash 32.0 r0","ruffle.js",[new RuffleMimeType("application/futuresplash","Shockwave Flash","spl"),new RuffleMimeType("application/x-shockwave-flash","Shockwave Flash","swf"),new RuffleMimeType("application/x-shockwave-flash2-preview","Shockwave Flash","swf"),new RuffleMimeType("application/vnd.adobe.flash-movie","Shockwave Flash","swf")]);function install_plugin(a){navigator.plugins.install||Object.defineProperty(navigator,"plugins",{value:new RufflePluginArray(navigator.plugins),writable:!1}),navigator.plugins.install(a),0&lt;a.length&amp;&amp;!navigator.mimeTypes.install&amp;&amp;Object.defineProperty(navigator,"mimeTypes",{value:new RuffleMimeTypeArray(navigator.mimeTypes),writable:!1});for(var b=0;b&lt;a.length;b+=1)navigator.mimeTypes.install(a[b])}install_plugin(FLASH_PLUGIN);})();</script></g></svg>
